<?xml version="1.0" encoding="iso-8859-1"?>
<!-- Generator: Adobe Illustrator 18.0.0, SVG Export Plug-In . SVG Version: 6.00 Build 0)  -->
<!DOCTYPE svg PUBLIC "-//W3C//DTD SVG 1.1//EN" "http://www.w3.org/Graphics/SVG/1.1/DTD/svg11.dtd">
<svg version="1.1" id="Capa_1" xmlns="http://www.w3.org/2000/svg" xmlns:xlink="http://www.w3.org/1999/xlink" x="0px" y="0px"
	 viewBox="0 0 423.137 423.137" style="enable-background:new 0 0 423.137 423.137;" xml:space="preserve">
<g>
	<path d="M323.823,189.154c0-19.335-15.73-35.066-35.066-35.066s-35.066,15.73-35.066,35.066s15.73,35.066,35.066,35.066
		S323.823,208.49,323.823,189.154z M268.692,189.154c0-11.064,9.001-20.066,20.066-20.066s20.066,9.001,20.066,20.066
		s-9.001,20.066-20.066,20.066S268.692,200.219,268.692,189.154z"/>
	<path d="M387.81,0H72.431c-2.306,0-4.571,0.176-6.784,0.515c-21.387,3.277-37.82,21.8-37.82,44.088v333.931
		c0,24.594,20.009,44.603,44.604,44.603h72.52c10.085,0,19.395-3.368,26.875-9.033c0.325-0.213,0.632-0.461,0.928-0.73
		c6.184-4.945,11.027-11.495,13.891-19.017H387.81c4.142,0,7.5-3.358,7.5-7.5V7.5C395.31,3.358,391.952,0,387.81,0z M77.609,74.207
		c1.001-6.05,3.844-11.622,8.268-16.041c5.583-5.591,13.013-8.669,20.923-8.669h67.343c-2.34,14.002-14.536,24.71-29.192,24.71
		H77.609z M72.431,15h72.52c1.53,0,3.034,0.117,4.502,0.342c10.79,1.653,19.679,9.154,23.323,19.155H106.8
		c-11.92,0-23.12,4.642-31.53,13.063c-6.862,6.853-11.213,15.554-12.593,24.989c-11.544-4.041-19.85-15.038-19.85-27.945
		C42.827,28.28,56.108,15,72.431,15z M42.827,77.927c7.882,7.01,18.251,11.279,29.604,11.279h14.72l65.772,65.771L42.827,265.073
		V77.927z M174.554,378.534c0,7.124-2.53,13.668-6.739,18.781l-67.313-67.313c-2.929-2.929-7.678-2.929-10.606,0
		c-2.929,2.929-2.929,7.678,0,10.606l65.585,65.585c-3.274,1.251-6.823,1.943-10.531,1.943h-72.52
		c-16.323,0-29.604-13.28-29.604-29.603V293.54l19.07,19.07c1.464,1.464,3.384,2.197,5.303,2.197s3.839-0.732,5.303-2.197
		c2.929-2.929,2.929-7.678,0-10.606l-22.697-22.697L83.7,245.413l90.854,90.854V378.534z M174.554,268.036
		c-0.001,0.061-0.001,0.121,0,0.182v46.836l-80.248-80.248l69.222-69.222l11.025,11.025V268.036z M174.554,155.397l-66.191-66.19
		h36.587c11.352,0,21.722-4.27,29.604-11.28V155.397z M178.275,15h84.946l-73.667,73.672V44.603
		C189.554,33.251,185.285,22.882,178.275,15z M243.16,222.292c-16.401-22.569-13.988-53.268,5.74-72.996
		c10.989-10.989,25.423-16.483,39.858-16.483s28.869,5.495,39.858,16.483c19.728,19.728,22.142,50.427,5.74,72.996l-45.598,62.742
		L243.16,222.292z M265.03,277.899l-75.475,75.467v-82.139l40.914-40.922c0.188,0.267,0.366,0.54,0.558,0.805L265.03,277.899z
		 M238.293,138.69c-12.007,12.007-19.352,27.942-20.683,44.87c-0.893,11.362,0.972,22.701,5.305,33.086l-33.361,33.367V109.88
		l11.989-11.983l38.823,38.823C239.668,137.365,238.971,138.012,238.293,138.69z M189.554,379.357v-4.778l84.404-84.395
		l8.733,12.016c1.411,1.942,3.667,3.091,6.067,3.091s4.656-1.149,6.067-3.091l6.916-9.516l52.234,52.24l-34.441,34.433H189.554z
		 M380.31,379.357h-39.56l23.831-23.826l15.729,15.731V379.357z M380.31,350.047l-69.641-69.648l30.883-42.494l38.758,38.758
		V350.047z M380.31,255.45l-30.072-30.072c7.402-12.568,10.819-27.176,9.668-41.818c-1.331-16.928-8.677-32.863-20.684-44.87
		c-2.079-2.079-4.266-3.984-6.526-5.752l47.614-47.614V255.45z M380.31,64.11l-60.701,60.702
		c-21.272-10.175-46.572-9.234-67.087,2.85l-40.37-40.37L284.434,15h95.876V64.11z"/>
	<path d="M79.482,313.706c-1.429,0.305-2.805,0.996-3.83,2.05c-2.925,2.843-2.862,7.75,0,10.6c2.862,2.851,7.749,2.933,10.6,0
		c2.896-2.815,2.901-7.784,0-10.6C84.54,313.992,81.878,313.212,79.482,313.706C79.012,313.806,80.452,313.506,79.482,313.706z"/>
</g>
<g>
</g>
<g>
</g>
<g>
</g>
<g>
</g>
<g>
</g>
<g>
</g>
<g>
</g>
<g>
</g>
<g>
</g>
<g>
</g>
<g>
</g>
<g>
</g>
<g>
</g>
<g>
</g>
<g>
</g>
</svg>
